<mxfile host="app.diagrams.net" modified="2022-11-04T17:19:01.807Z" agent="5.0 (Windows NT 10.0; Win64; x64) AppleWebKit/537.36 (KHTML, like Gecko) Chrome/105.0.0.0 Safari/537.36" etag="o2rDCnMu5dV8Bd8tYisH" version="20.3.3" type="github">
  <diagram id="Hy4UxxQMlRIDFk4z2euO" name="第 1 页">
    <mxGraphModel dx="1038" dy="522" grid="1" gridSize="10" guides="1" tooltips="1" connect="1" arrows="1" fold="1" page="1" pageScale="1" pageWidth="3300" pageHeight="4681" math="0" shadow="0">
      <root>
        <mxCell id="0" />
        <mxCell id="1" parent="0" />
        <mxCell id="-tDeRr-j0cfwzCsAlGXs-7" style="edgeStyle=orthogonalEdgeStyle;rounded=0;orthogonalLoop=1;jettySize=auto;html=1;entryX=0.5;entryY=0;entryDx=0;entryDy=0;endArrow=none;endFill=0;startArrow=classic;startFill=1;" edge="1" parent="1" source="-tDeRr-j0cfwzCsAlGXs-1" target="-tDeRr-j0cfwzCsAlGXs-5">
          <mxGeometry relative="1" as="geometry" />
        </mxCell>
        <mxCell id="-tDeRr-j0cfwzCsAlGXs-8" value="提供静态绑定器" style="edgeLabel;html=1;align=center;verticalAlign=middle;resizable=0;points=[];" vertex="1" connectable="0" parent="-tDeRr-j0cfwzCsAlGXs-7">
          <mxGeometry x="-0.0477" y="-2" relative="1" as="geometry">
            <mxPoint as="offset" />
          </mxGeometry>
        </mxCell>
        <mxCell id="-tDeRr-j0cfwzCsAlGXs-1" value="Slf4j" style="rounded=0;whiteSpace=wrap;html=1;fillColor=#dae8fc;strokeColor=#6c8ebf;" vertex="1" parent="1">
          <mxGeometry x="190" y="200" width="90" height="40" as="geometry" />
        </mxCell>
        <mxCell id="-tDeRr-j0cfwzCsAlGXs-3" value="通过staticBinder来绑定" style="edgeStyle=orthogonalEdgeStyle;rounded=0;orthogonalLoop=1;jettySize=auto;html=1;endArrow=none;endFill=0;startArrow=classic;startFill=1;" edge="1" parent="1" source="-tDeRr-j0cfwzCsAlGXs-2" target="-tDeRr-j0cfwzCsAlGXs-1">
          <mxGeometry relative="1" as="geometry" />
        </mxCell>
        <mxCell id="-tDeRr-j0cfwzCsAlGXs-2" value="Logback" style="rounded=0;whiteSpace=wrap;html=1;fillColor=#fff2cc;strokeColor=#d6b656;" vertex="1" parent="1">
          <mxGeometry x="190" y="350" width="90" height="40" as="geometry" />
        </mxCell>
        <mxCell id="-tDeRr-j0cfwzCsAlGXs-6" style="edgeStyle=orthogonalEdgeStyle;rounded=0;orthogonalLoop=1;jettySize=auto;html=1;" edge="1" parent="1" source="-tDeRr-j0cfwzCsAlGXs-4" target="-tDeRr-j0cfwzCsAlGXs-5">
          <mxGeometry relative="1" as="geometry" />
        </mxCell>
        <mxCell id="-tDeRr-j0cfwzCsAlGXs-12" style="edgeStyle=orthogonalEdgeStyle;rounded=0;orthogonalLoop=1;jettySize=auto;html=1;" edge="1" parent="1" source="-tDeRr-j0cfwzCsAlGXs-4" target="-tDeRr-j0cfwzCsAlGXs-10">
          <mxGeometry relative="1" as="geometry" />
        </mxCell>
        <mxCell id="-tDeRr-j0cfwzCsAlGXs-13" value="直接实现它的接口" style="edgeLabel;html=1;align=center;verticalAlign=middle;resizable=0;points=[];" vertex="1" connectable="0" parent="-tDeRr-j0cfwzCsAlGXs-12">
          <mxGeometry x="0.5833" relative="1" as="geometry">
            <mxPoint as="offset" />
          </mxGeometry>
        </mxCell>
        <mxCell id="-tDeRr-j0cfwzCsAlGXs-4" value="Log4j" style="rounded=0;whiteSpace=wrap;html=1;fillColor=#ffe6cc;strokeColor=#d79b00;" vertex="1" parent="1">
          <mxGeometry x="380" y="350" width="90" height="40" as="geometry" />
        </mxCell>
        <mxCell id="-tDeRr-j0cfwzCsAlGXs-5" value="sl4fj-log4j12" style="rounded=1;whiteSpace=wrap;html=1;fillColor=#d5e8d4;strokeColor=#82b366;" vertex="1" parent="1">
          <mxGeometry x="390" y="260" width="70" height="30" as="geometry" />
        </mxCell>
        <mxCell id="-tDeRr-j0cfwzCsAlGXs-10" value="Commons" style="rounded=0;whiteSpace=wrap;html=1;fillColor=#dae8fc;strokeColor=#6c8ebf;" vertex="1" parent="1">
          <mxGeometry x="510" y="200" width="90" height="40" as="geometry" />
        </mxCell>
        <mxCell id="-tDeRr-j0cfwzCsAlGXs-19" value="提供静态绑定器" style="edgeStyle=orthogonalEdgeStyle;rounded=0;orthogonalLoop=1;jettySize=auto;html=1;entryX=0.5;entryY=0;entryDx=0;entryDy=0;" edge="1" parent="1" source="-tDeRr-j0cfwzCsAlGXs-16" target="-tDeRr-j0cfwzCsAlGXs-1">
          <mxGeometry x="-0.2" relative="1" as="geometry">
            <mxPoint as="offset" />
          </mxGeometry>
        </mxCell>
        <mxCell id="-tDeRr-j0cfwzCsAlGXs-21" style="edgeStyle=orthogonalEdgeStyle;rounded=0;orthogonalLoop=1;jettySize=auto;html=1;entryX=0.5;entryY=0;entryDx=0;entryDy=0;startArrow=none;startFill=0;endArrow=classic;endFill=1;" edge="1" parent="1" source="-tDeRr-j0cfwzCsAlGXs-16" target="-tDeRr-j0cfwzCsAlGXs-10">
          <mxGeometry relative="1" as="geometry" />
        </mxCell>
        <mxCell id="-tDeRr-j0cfwzCsAlGXs-23" value="实现它的接口" style="edgeLabel;html=1;align=center;verticalAlign=middle;resizable=0;points=[];" vertex="1" connectable="0" parent="-tDeRr-j0cfwzCsAlGXs-21">
          <mxGeometry x="-0.2275" y="-1" relative="1" as="geometry">
            <mxPoint x="-12" y="-1" as="offset" />
          </mxGeometry>
        </mxCell>
        <mxCell id="-tDeRr-j0cfwzCsAlGXs-16" value="jcl-over-sl4fj" style="rounded=1;whiteSpace=wrap;html=1;fillColor=#d5e8d4;strokeColor=#82b366;" vertex="1" parent="1">
          <mxGeometry x="380" y="130" width="70" height="30" as="geometry" />
        </mxCell>
      </root>
    </mxGraphModel>
  </diagram>
</mxfile>
